<?xml version="1.0" encoding="UTF-8"?>
<svg xmlns="http://www.w3.org/2000/svg" viewBox="110 110 290 290">
  <defs>
    <style>
      .cls-1 { fill: none; }
      .cls-2 { fill: #4b4e6d; }
      .cls-3 { fill: #222; }
      .cls-4 { fill: #d496a7; }
      .cls-5 { fill: #a8e0ff; }
      .cls-6 { fill: #f4e8c1; }
    </style>
    <clipPath id="rounded">
      <rect x="0" y="0" width="512" height="512" rx="115" ry="115"/>
    </clipPath>
  </defs>
  <g clip-path="url(#rounded)">
  <rect class="cls-5" x="0" y="0" width="512" height="512"/>
  <g>
    <rect class="cls-3" x="249.9" y="231.35" width="10.82" height="49.98" transform="translate(616.92 267.81) rotate(136.7)"/>
    <path class="cls-2" d="M228.8,161.4c-36.38,0-65.88,29.49-65.88,65.88s29.49,65.88,65.88,65.88,65.88-29.49,65.88-65.88-29.49-65.88-65.88-65.88ZM228.8,279.52c-28.85,0-52.24-23.39-52.24-52.24s23.39-52.24,52.24-52.24,52.24,23.39,52.24,52.24-23.39,52.24-52.24,52.24Z"/>
    <path class="cls-4" d="M255.31,190.47c-36.38,0-65.88,29.49-65.88,65.88s29.49,65.88,65.88,65.88,65.88-29.49,65.88-65.88-29.49-65.88-65.88-65.88ZM255.31,308.58c-28.85,0-52.24-23.39-52.24-52.24s23.39-52.24,52.24-52.24,52.24,23.39,52.24,52.24-23.39,52.24-52.24,52.24Z"/>
    <path class="cls-6" d="M283.2,218.84c-36.38,0-65.88,29.49-65.88,65.88s29.49,65.88,65.88,65.88,65.88-29.49,65.88-65.88-29.49-65.88-65.88-65.88ZM283.2,336.96c-28.85,0-52.24-23.39-52.24-52.24s23.39-52.24,52.24-52.24,52.24,23.39,52.24,52.24-23.39,52.24-52.24,52.24Z"/>
  </g>
  </g>
</svg>
